<svg xmlns="http://www.w3.org/2000/svg" xmlns:xlink="http://www.w3.org/1999/xlink" width="40" height="40.376" viewBox="0 0 40 40.376">
  <defs>
    <style>
      .cls-1 {
        fill: #f7f7f7;
      }

      .cls-2, .cls-4 {
        fill: none;
      }

      .cls-2 {
        stroke: #f7f7f7;
        stroke-width: 2px;
      }

      .cls-3 {
        stroke: none;
      }

      .cls-5 {
        filter: url(#路径_28);
      }
    </style>
    <filter id="路径_28" x="2" y="6" width="34.36" height="34.375" filterUnits="userSpaceOnUse">
      <feOffset dy="3" input="SourceAlpha"/>
      <feGaussianBlur stdDeviation="3" result="blur"/>
      <feFlood flood-opacity="0.161"/>
      <feComposite operator="in" in2="blur"/>
      <feComposite in="SourceGraphic"/>
    </filter>
  </defs>
  <g id="刷新" transform="translate(8.201 7.466)">
    <g id="组_2552" data-name="组 2552" transform="translate(-1.2 -0.466)">
      <g id="组_90" data-name="组 90" transform="translate(4 5)">
        <g class="cls-5" transform="matrix(1, 0, 0, 1, -11, -12)">
          <path id="路径_28-2" data-name="路径 28" class="cls-1" d="M989.375,2317.1a8.188,8.188,0,1,1,8.181-8.187,1.079,1.079,0,1,1-2.159,0,6.022,6.022,0,1,0-6.022,6.026,1.081,1.081,0,0,1,0,2.161Z" transform="translate(-970.19 -2288.73)"/>
        </g>
      </g>
      <g id="组_92" data-name="组 92" transform="translate(16.315 11.684)">
        <g id="组_91" data-name="组 91">
          <path id="路径_29" data-name="路径 29" class="cls-1" d="M1099.2,2375.908a1.152,1.152,0,0,1-2.167-.235l-1.216-2.756c-.484-1.1.1-1.889,1.287-1.759l2.995.325c1.192.129,1.588,1.027.88,1.995Z" transform="translate(-1095.647 -2371.144)"/>
        </g>
      </g>
    </g>
    <g id="椭圆_171" data-name="椭圆 171" class="cls-2" transform="translate(-8.2 -7.466)">
      <circle class="cls-3" cx="20" cy="20" r="20"/>
      <circle class="cls-4" cx="20" cy="20" r="19"/>
    </g>
  </g>
</svg>
